<svg width="22" height="34" viewBox="0 0 22 34" fill="none" xmlns="http://www.w3.org/2000/svg">
<path d="M4.23077 12.2857C4.23077 11.948 4.29643 11.6137 4.424 11.3017C4.55157 10.9897 4.73855 10.7062 4.97427 10.4674C5.20999 10.2287 5.48982 10.0393 5.7978 9.91002C6.10578 9.7808 6.43588 9.71429 6.76923 9.71429C7.10259 9.71429 7.43268 9.7808 7.74066 9.91002C8.04864 10.0393 8.32848 10.2287 8.56419 10.4674C8.79991 10.7062 8.98689 10.9897 9.11446 11.3017C9.24203 11.6137 9.30769 11.948 9.30769 12.2857C9.30769 12.9677 9.04025 13.6218 8.56419 14.104C8.08814 14.5862 7.44247 14.8571 6.76923 14.8571C6.09599 14.8571 5.45032 14.5862 4.97427 14.104C4.49821 13.6218 4.23077 12.9677 4.23077 12.2857ZM6.76923 8C5.64716 8 4.57105 8.45153 3.77763 9.25526C2.9842 10.059 2.53846 11.1491 2.53846 12.2857C2.53846 13.4224 2.9842 14.5124 3.77763 15.3162C4.57105 16.1199 5.64716 16.5714 6.76923 16.5714C7.8913 16.5714 8.96741 16.1199 9.76084 15.3162C10.5543 14.5124 11 13.4224 11 12.2857C11 11.1491 10.5543 10.059 9.76084 9.25526C8.96741 8.45153 7.8913 8 6.76923 8ZM15.2308 13.1429C15.2308 12.6882 15.4091 12.2522 15.7264 11.9307C16.0438 11.6092 16.4742 11.4286 16.9231 11.4286C17.3719 11.4286 17.8023 11.6092 18.1197 11.9307C18.4371 12.2522 18.6154 12.6882 18.6154 13.1429C18.6154 13.5975 18.4371 14.0335 18.1197 14.355C17.8023 14.6765 17.3719 14.8571 16.9231 14.8571C16.4742 14.8571 16.0438 14.6765 15.7264 14.355C15.4091 14.0335 15.2308 13.5975 15.2308 13.1429ZM16.9231 9.71429C16.0254 9.71429 15.1645 10.0755 14.5298 10.7185C13.8951 11.3615 13.5385 12.2335 13.5385 13.1429C13.5385 14.0522 13.8951 14.9242 14.5298 15.5672C15.1645 16.2102 16.0254 16.5714 16.9231 16.5714C17.8207 16.5714 18.6816 16.2102 19.3164 15.5672C19.9511 14.9242 20.3077 14.0522 20.3077 13.1429C20.3077 12.2335 19.9511 11.3615 19.3164 10.7185C18.6816 10.0755 17.8207 9.71429 16.9231 9.71429ZM0 20.8571C0 20.1752 0.267444 19.5211 0.743498 19.0389C1.21955 18.5566 1.86522 18.2857 2.53846 18.2857H11C11.6732 18.2857 12.3189 18.5566 12.795 19.0389C13.271 19.5211 13.5385 20.1752 13.5385 20.8571V21.0491C13.5367 21.1277 13.531 21.206 13.5215 21.284C13.4251 22.1151 13.1198 22.9072 12.6348 23.5846C11.7091 24.8789 9.94908 26 6.76923 26C3.59108 26 1.83108 24.8789 0.902 23.5846C0.417596 22.907 0.11286 22.1149 0.0169231 21.284C0.00849812 21.2059 0.00285345 21.1276 0 21.0491V21.0183V20.8571ZM1.69231 21.0114V21.0234L1.69908 21.1074C1.76461 21.6381 1.96136 22.1434 2.27108 22.5766C2.82277 23.3446 4.02431 24.2857 6.76923 24.2857C9.51415 24.2857 10.7157 23.3446 11.2674 22.5766C11.5771 22.1434 11.7738 21.6381 11.8394 21.1074C11.8424 21.0789 11.8447 21.0503 11.8462 21.0217V20.8571C11.8462 20.6298 11.757 20.4118 11.5983 20.2511C11.4396 20.0903 11.2244 20 11 20H2.53846C2.31405 20 2.09883 20.0903 1.94014 20.2511C1.78146 20.4118 1.69231 20.6298 1.69231 20.8571V21.0114ZM16.9231 24.2857C15.928 24.2857 15.1123 24.1314 14.4523 23.8777C14.7236 23.3743 14.929 22.8372 15.0632 22.28C15.5168 22.4531 16.1192 22.5714 16.9231 22.5714C18.8168 22.5714 19.5935 21.9166 19.9354 21.4297C20.1352 21.1457 20.262 20.8158 20.3043 20.4697L20.3077 20.4217C20.3059 20.3092 20.2606 20.202 20.1814 20.1231C20.1023 20.0442 19.9957 20 19.8846 20H15.1462C15.0212 19.3783 14.7611 18.7927 14.3846 18.2857H19.8846C21.0523 18.2857 22 19.2457 22 20.4286V20.4577C21.998 20.5202 21.9935 20.5825 21.9865 20.6446C21.9148 21.2871 21.683 21.9006 21.3129 22.4274C20.5988 23.4406 19.2602 24.2857 16.9231 24.2857Z" fill="#42474D"/>
</svg>
