<svg width="26" height="23" viewBox="0 0 26 23" fill="none" xmlns="http://www.w3.org/2000/svg">
<path d="M5.15574 1.52036C4.94397 1.23617 4.67497 0.999546 4.3661 0.825751C4.05723 0.651955 3.71535 0.544851 3.36253 0.511351C3.0097 0.477851 2.65378 0.518699 2.31772 0.631259C1.98166 0.743819 1.67293 0.92559 1.41146 1.16484C0.436433 2.06222 0.357677 3.57857 1.14802 4.64622L6.23837 11.4681L1.11751 18.3538C0.328281 19.4214 0.390399 20.9378 1.38041 21.8352C1.64186 22.0743 1.95055 22.256 2.28656 22.3685C2.62256 22.481 2.97842 22.5218 3.33117 22.4883C3.68393 22.4548 4.02574 22.3478 4.33456 22.174C4.64338 22.0003 4.91235 21.7637 5.12412 21.4796L12.2727 11.8713C12.3557 11.7565 12.4004 11.6184 12.4004 11.4767C12.4004 11.335 12.3557 11.1969 12.2727 11.0821L5.15574 1.52036ZM24.8821 18.3538L19.7612 11.4692L24.8516 4.64733C25.6403 3.57968 25.5632 2.06333 24.5881 1.16595C24.3267 0.926699 24.0179 0.744928 23.6819 0.632369C23.3458 0.519809 22.9899 0.47896 22.6371 0.512461C22.2842 0.545961 21.9424 0.653065 21.6335 0.82686C21.3246 1.00066 21.0556 1.23728 20.8439 1.52146L13.7447 11.0677C13.6616 11.1825 13.6169 11.3206 13.6169 11.4623C13.6169 11.604 13.6616 11.7421 13.7447 11.8569L20.8755 21.4796C21.0872 21.7638 21.3562 22.0005 21.6651 22.1742C21.974 22.348 22.3159 22.4551 22.6687 22.4886C23.0215 22.5221 23.3774 22.4813 23.7135 22.3687C24.0496 22.2562 24.3583 22.0744 24.6197 21.8352C25.6092 20.9378 25.6713 19.4214 24.8821 18.3538Z" fill="#313630"/>
</svg>
