<svg width="19" height="19" viewBox="0 0 19 19" fill="none" xmlns="http://www.w3.org/2000/svg">
<path d="M3.325 3.0875C3.325 2.1698 4.0698 1.425 4.9875 1.425H15.9125C16.8302 1.425 17.575 2.1698 17.575 3.0875V14.0125C17.575 14.4534 17.3998 14.8763 17.0881 15.1881C16.7763 15.4998 16.3534 15.675 15.9125 15.675H11.1026C10.9402 16.1769 10.7138 16.6559 10.4291 17.1H15.9125C16.7314 17.1 17.5167 16.7747 18.0957 16.1957C18.6747 15.6167 19 14.8314 19 14.0125V3.0875C19 2.26864 18.6747 1.48333 18.0957 0.904308C17.5167 0.325289 16.7314 0 15.9125 0H4.9875C4.16864 0 3.38333 0.325289 2.80431 0.904308C2.22529 1.48333 1.9 2.26864 1.9 3.0875V8.5709C2.34414 8.28618 2.82307 8.0598 3.325 7.89735V3.0875ZM10.925 3.5625C10.925 3.37353 10.8499 3.19231 10.7163 3.05869C10.5827 2.92507 10.4015 2.85 10.2125 2.85C10.0235 2.85 9.84231 2.92507 9.70869 3.05869C9.57507 3.19231 9.5 3.37353 9.5 3.5625V9.2625C9.5 9.6558 9.8192 9.975 10.2125 9.975H14.4875C14.6765 9.975 14.8577 9.89993 14.9913 9.76631C15.1249 9.63269 15.2 9.45147 15.2 9.2625C15.2 9.07353 15.1249 8.89231 14.9913 8.75869C14.8577 8.62507 14.6765 8.55 14.4875 8.55H10.925V3.5625ZM10.45 13.775C10.45 14.4612 10.3149 15.1406 10.0523 15.7745C9.78969 16.4084 9.40482 16.9844 8.91963 17.4696C8.43445 17.9548 7.85845 18.3397 7.22452 18.6023C6.59059 18.8649 5.91116 19 5.225 19C4.53884 19 3.85941 18.8649 3.22548 18.6023C2.59155 18.3397 2.01555 17.9548 1.53037 17.4696C1.04518 16.9844 0.66031 16.4084 0.397729 15.7745C0.135149 15.1406 -1.02245e-08 14.4612 0 13.775C2.06494e-08 12.3892 0.55049 11.0602 1.53037 10.0804C2.51024 9.10049 3.83924 8.55 5.225 8.55C6.61076 8.55 7.93976 9.10049 8.91963 10.0804C9.89951 11.0602 10.45 12.3892 10.45 13.775ZM1.425 13.775C1.425 14.5673 1.66725 15.3026 2.08145 15.9106L7.3606 10.6314C6.78932 10.2433 6.12305 10.0182 5.43342 9.98029C4.74378 9.94241 4.05687 10.0932 3.44651 10.4165C2.83615 10.7397 2.32543 11.2232 1.96926 11.8149C1.61308 12.4067 1.42492 13.0843 1.425 13.775ZM5.225 17.575C5.91567 17.5751 6.59331 17.3869 7.18506 17.0307C7.77681 16.6746 8.2603 16.1639 8.58355 15.5535C8.9068 14.9431 9.05759 14.2562 9.01971 13.5666C8.98183 12.8769 8.75671 12.2107 8.36855 11.6394L3.0894 16.9186C3.71889 17.3475 4.46326 17.5763 5.225 17.575Z" fill="#494949"/>
</svg>
