<svg width="34" height="25" viewBox="0 0 34 25" fill="none" xmlns="http://www.w3.org/2000/svg">
<path d="M4.625 5.92105C4.625 5.14349 4.78504 4.37354 5.096 3.65516C5.40695 2.93679 5.86271 2.28406 6.43728 1.73424C7.01184 1.18442 7.69394 0.748274 8.44465 0.450713C9.19535 0.153153 9.99995 0 10.8125 0C11.6251 0 12.4297 0.153153 13.1804 0.450713C13.9311 0.748274 14.6132 1.18442 15.1877 1.73424C15.7623 2.28406 16.2181 2.93679 16.529 3.65516C16.84 4.37354 17 5.14349 17 5.92105C17 7.49141 16.3481 8.99746 15.1877 10.1079C14.0273 11.2183 12.4535 11.8421 10.8125 11.8421C9.17147 11.8421 7.59766 11.2183 6.43728 10.1079C5.2769 8.99746 4.625 7.49141 4.625 5.92105ZM10.8125 1.97368C10.2708 1.97368 9.7344 2.07579 9.23393 2.27416C8.73346 2.47253 8.27873 2.76329 7.89568 3.12984C7.51264 3.49639 7.2088 3.93154 7.0015 4.41046C6.7942 4.88938 6.6875 5.40268 6.6875 5.92105C6.6875 6.43943 6.7942 6.95273 7.0015 7.43164C7.2088 7.91056 7.51264 8.34572 7.89568 8.71226C8.27873 9.07881 8.73346 9.36957 9.23393 9.56795C9.7344 9.76632 10.2708 9.86842 10.8125 9.86842C11.9065 9.86842 12.9557 9.45254 13.7293 8.71226C14.5029 7.97199 14.9375 6.96796 14.9375 5.92105C14.9375 4.87415 14.5029 3.87012 13.7293 3.12984C12.9557 2.38957 11.9065 1.97368 10.8125 1.97368ZM20.4375 7.23684C20.4375 6.63207 20.562 6.03322 20.8038 5.47448C21.0457 4.91575 21.4002 4.40807 21.847 3.98043C22.2939 3.55279 22.8245 3.21357 23.4083 2.98213C23.9922 2.7507 24.618 2.63158 25.25 2.63158C25.882 2.63158 26.5078 2.7507 27.0917 2.98213C27.6755 3.21357 28.2061 3.55279 28.653 3.98043C29.0998 4.40807 29.4543 4.91575 29.6962 5.47448C29.938 6.03322 30.0625 6.63207 30.0625 7.23684C30.0625 8.45823 29.5555 9.6296 28.653 10.4933C27.7504 11.3569 26.5264 11.8421 25.25 11.8421C23.9736 11.8421 22.7496 11.3569 21.847 10.4933C20.9445 9.6296 20.4375 8.45823 20.4375 7.23684ZM25.25 4.60526C24.5207 4.60526 23.8212 4.88252 23.3055 5.37604C22.7897 5.86955 22.5 6.5389 22.5 7.23684C22.5 7.93478 22.7897 8.60413 23.3055 9.09765C23.8212 9.59117 24.5207 9.86842 25.25 9.86842C25.9793 9.86842 26.6788 9.59117 27.1945 9.09765C27.7103 8.60413 28 7.93478 28 7.23684C28 6.5389 27.7103 5.86955 27.1945 5.37604C26.6788 4.88252 25.9793 4.60526 25.25 4.60526ZM0.5 17.4342C0.5 16.649 0.825948 15.896 1.40614 15.3408C1.98633 14.7856 2.77324 14.4737 3.59375 14.4737H18.0312C18.3557 14.4737 18.6693 14.5211 18.9635 14.6105C18.7287 14.8685 18.5572 15.1736 18.4615 15.5032C18.3659 15.8329 18.3485 16.1789 18.4107 16.5158C18.2899 16.4703 18.1611 16.447 18.0312 16.4474H3.59375C3.32025 16.4474 3.05794 16.5513 2.86455 16.7364C2.67115 16.9215 2.5625 17.1725 2.5625 17.4342V18.1092L2.57488 18.2408C2.58863 18.3645 2.61612 18.55 2.67663 18.7776C2.83694 19.3862 3.12204 19.9583 3.51537 20.4605C4.44212 21.6408 6.4235 23.0263 10.8125 23.0263C15.2015 23.0263 17.1829 21.6408 18.1082 20.4605C18.2073 20.3342 18.2952 20.2092 18.375 20.0842C18.3782 20.4638 18.4794 20.8367 18.6697 21.1698C18.8599 21.5029 19.1333 21.7858 19.4654 21.9934C19.3732 22.0965 19.2778 22.197 19.1794 22.2947C19.112 22.3526 19.0487 22.4132 18.9883 22.4776C17.4565 23.8882 14.9224 25 10.8125 25C5.92025 25 3.261 23.425 1.86675 21.6447C1.30775 20.9324 0.902929 20.1205 0.676 19.2566C0.586223 18.9126 0.528703 18.5617 0.504125 18.2079C0.502411 18.1829 0.501036 18.1579 0.5 18.1329V18.0947V17.4342ZM20.7812 15.1316C20.5077 15.1316 20.2454 15.2355 20.052 15.4206C19.8586 15.6057 19.75 15.8567 19.75 16.1184C19.75 16.3801 19.8586 16.6312 20.052 16.8162C20.2454 17.0013 20.5077 17.1053 20.7812 17.1053H32.4688C32.7423 17.1053 33.0046 17.0013 33.198 16.8162C33.3913 16.6312 33.5 16.3801 33.5 16.1184C33.5 15.8567 33.3913 15.6057 33.198 15.4206C33.0046 15.2355 32.7423 15.1316 32.4688 15.1316H20.7812ZM20.7812 19.0789C20.5077 19.0789 20.2454 19.1829 20.052 19.368C19.8586 19.5531 19.75 19.8041 19.75 20.0658C19.75 20.3275 19.8586 20.5785 20.052 20.7636C20.2454 20.9487 20.5077 21.0526 20.7812 21.0526H32.4688C32.7423 21.0526 33.0046 20.9487 33.198 20.7636C33.3913 20.5785 33.5 20.3275 33.5 20.0658C33.5 19.8041 33.3913 19.5531 33.198 19.368C33.0046 19.1829 32.7423 19.0789 32.4688 19.0789H20.7812ZM20.7812 23.0263C20.5077 23.0263 20.2454 23.1303 20.052 23.3154C19.8586 23.5004 19.75 23.7514 19.75 24.0132C19.75 24.2749 19.8586 24.5259 20.052 24.711C20.2454 24.896 20.5077 25 20.7812 25H32.4688C32.7423 25 33.0046 24.896 33.198 24.711C33.3913 24.5259 33.5 24.2749 33.5 24.0132C33.5 23.7514 33.3913 23.5004 33.198 23.3154C33.0046 23.1303 32.7423 23.0263 32.4688 23.0263H20.7812Z" fill="#313630"/>
</svg>
