<svg width="19" height="19" viewBox="0 0 19 19" fill="none" xmlns="http://www.w3.org/2000/svg">
<path d="M17.1 9.5C17.1 7.48435 16.2993 5.55126 14.874 4.12599C13.4487 2.70071 11.5156 1.9 9.5 1.9C7.48435 1.9 5.55126 2.70071 4.12599 4.12599C2.70071 5.55126 1.9 7.48435 1.9 9.5C1.9 11.5156 2.70071 13.4487 4.12599 14.874C5.55126 16.2993 7.48435 17.1 9.5 17.1C11.5156 17.1 13.4487 16.2993 14.874 14.874C16.2993 13.4487 17.1 11.5156 17.1 9.5ZM19 9.5C19 14.7469 14.7469 19 9.5 19C4.25315 19 0 14.7469 0 9.5C0 4.25315 4.25315 0 9.5 0C14.7469 0 19 4.25315 19 9.5ZM10.925 5.7C11.2366 6.1142 11.4599 6.5987 11.5662 7.125H13.3V8.55H11.5662C11.4018 9.35459 10.9646 10.0777 10.3284 10.597C9.69223 11.1163 8.89622 11.4 8.075 11.4H7.8945L11.4285 14.934L10.4215 15.941L5.7 11.2195V9.975H8.075C8.51713 9.97513 8.94843 9.83816 9.30947 9.58295C9.67051 9.32774 9.94352 8.96685 10.0909 8.55H5.7V7.125H10.0909C9.9434 6.70823 9.67036 6.34742 9.30935 6.09223C8.94833 5.83703 8.5171 5.70001 8.075 5.7H5.7V4.275H13.3V5.7H10.925Z" fill="#494949"/>
</svg>
