<svg width="31" height="31" viewBox="0 0 31 31" fill="none" xmlns="http://www.w3.org/2000/svg">
<path d="M13.1091 1.24456C14.471 0.472557 16.1383 0.472558 17.5002 1.24457L26.3022 6.23399C27.6969 7.0246 28.5589 8.50402 28.5589 10.1073V19.9456C28.5589 21.5488 27.6969 23.0282 26.3022 23.8188L17.5002 28.8082C16.1383 29.5803 14.471 29.5803 13.1091 28.8082L4.30713 23.8188C2.9124 23.0282 2.05044 21.5488 2.05044 19.9456V10.1073C2.05044 8.50402 2.9124 7.0246 4.30714 6.23399L13.1091 1.24456Z" fill="#313630"/>
<path d="M15.0427 11.2675C15.3807 11.0831 15.7892 11.0831 16.1271 11.2675L18.6741 12.6574C19.0376 12.8558 19.2638 13.2368 19.2638 13.651V16.3223C19.2638 16.7365 19.0376 17.1176 18.6741 17.316L16.1271 18.7058C15.7892 18.8902 15.3807 18.8902 15.0427 18.7058L12.4958 17.316C12.1322 17.1176 11.906 16.7365 11.906 16.3223V13.651C11.906 13.2368 12.1322 12.8558 12.4958 12.6574L15.0427 11.2675Z" fill="#E5E5E5"/>
<path d="M15.0012 5.30466C15.3391 5.12025 15.7477 5.12025 16.0856 5.30466L16.7749 5.68079C17.1384 5.87918 17.3646 6.26026 17.3646 6.67442V7.3184C17.3646 7.73255 17.1384 8.11364 16.7749 8.31202L16.0856 8.68816C15.7477 8.87257 15.3391 8.87257 15.0012 8.68816L14.3119 8.31202C13.9484 8.11364 13.7222 7.73255 13.7222 7.3184V6.67442C13.7222 6.26026 13.9484 5.87918 14.3119 5.68079L15.0012 5.30466Z" fill="#E5E5E5"/>
<path d="M22.3196 9.51853C22.6575 9.33411 23.066 9.33411 23.404 9.51853L24.0933 9.89466C24.4568 10.093 24.683 10.4741 24.683 10.8883V11.5323C24.683 11.9464 24.4568 12.3275 24.0933 12.5259L23.404 12.902C23.066 13.0864 22.6575 13.0864 22.3196 12.902L21.6303 12.5259C21.2667 12.3275 21.0405 11.9464 21.0405 11.5323V10.8883C21.0405 10.4741 21.2667 10.093 21.6303 9.89466L22.3196 9.51853Z" fill="#E5E5E5"/>
<path d="M22.3196 17.0717C22.6575 16.8873 23.066 16.8873 23.404 17.0717L24.0933 17.4479C24.4568 17.6463 24.683 18.0274 24.683 18.4415V19.0855C24.683 19.4996 24.4568 19.8807 24.0933 20.0791L23.404 20.4552C23.066 20.6397 22.6575 20.6397 22.3196 20.4552L21.6303 20.0791C21.2667 19.8807 21.0405 19.4996 21.0405 19.0855V18.4415C21.0405 18.0274 21.2667 17.6463 21.6303 17.4479L22.3196 17.0717Z" fill="#E5E5E5"/>
<path d="M8.76735 17.0717C8.42941 16.8873 8.0209 16.8873 7.68295 17.0717L6.99365 17.4479C6.63011 17.6463 6.40392 18.0274 6.40392 18.4415V19.0855C6.40392 19.4996 6.63011 19.8807 6.99365 20.0791L7.68295 20.4552C8.0209 20.6397 8.42941 20.6397 8.76735 20.4552L9.45665 20.0791C9.8202 19.8807 10.0464 19.4996 10.0464 19.0855V18.4415C10.0464 18.0274 9.8202 17.6463 9.45665 17.4479L8.76735 17.0717Z" fill="#E5E5E5"/>
<path d="M15.0012 21.3647C15.3391 21.1803 15.7477 21.1803 16.0856 21.3647L16.7749 21.7409C17.1384 21.9392 17.3646 22.3203 17.3646 22.7345V23.3785C17.3646 23.7926 17.1384 24.1737 16.7749 24.3721L16.0856 24.7482C15.7477 24.9326 15.3391 24.9326 15.0012 24.7482L14.3119 24.3721C13.9484 24.1737 13.7222 23.7926 13.7222 23.3785V22.7345C13.7222 22.3203 13.9484 21.9392 14.3119 21.7409L15.0012 21.3647Z" fill="#E5E5E5"/>
<path d="M7.76683 9.51853C8.10477 9.33411 8.51328 9.33411 8.85123 9.51853L9.54053 9.89466C9.90407 10.093 10.1303 10.4741 10.1303 10.8883V11.5323C10.1303 11.9464 9.90407 12.3275 9.54053 12.5259L8.85123 12.902C8.51328 13.0864 8.10477 13.0864 7.76683 12.902L7.07753 12.5259C6.71398 12.3275 6.4878 11.9464 6.4878 11.5323V10.8883C6.4878 10.4741 6.71398 10.093 7.07753 9.89466L7.76683 9.51853Z" fill="#E5E5E5"/>
<rect x="15.375" y="8.74561" width="0.336476" height="2.46465" fill="#E5E5E5"/>
<rect width="0.322732" height="2.57267" transform="matrix(0.521292 -0.853378 0.877812 0.479005 9.82324 12.2012)" fill="#E5E5E5"/>
<rect x="15.375" y="18.8428" width="0.336476" height="2.46465" fill="#E5E5E5"/>
<rect width="0.322732" height="2.57267" transform="matrix(0.521292 0.853378 -0.877812 0.479005 21.082 11.9258)" fill="#E5E5E5"/>
<rect width="0.322732" height="2.57267" transform="matrix(-0.521292 0.853378 -0.877812 -0.479006 21.4189 17.7695)" fill="#E5E5E5"/>
<rect width="0.322732" height="2.57267" transform="matrix(0.521292 0.853378 0.877812 -0.479006 9.66797 17.7695)" fill="#E5E5E5"/>
</svg>
