<svg width="17" height="20" viewBox="0 0 17 20" fill="none" xmlns="http://www.w3.org/2000/svg">
<path d="M2.5 19.5C1.95 19.5 1.47933 19.3141 1.088 18.9423C0.696666 18.5706 0.500667 18.1231 0.5 17.6V2.4C0.5 1.8775 0.696 1.43037 1.088 1.0586C1.48 0.686833 1.95067 0.500633 2.5 0.5H14.5C15.05 0.5 15.521 0.6862 15.913 1.0586C16.305 1.431 16.5007 1.87813 16.5 2.4V17.6C16.5 18.1225 16.3043 18.5699 15.913 18.9423C15.5217 19.3147 15.0507 19.5006 14.5 19.5H2.5ZM2.5 17.6H14.5V2.4H2.5V17.6ZM8.5 16.65C9.88333 16.65 11.0627 16.1867 12.038 15.2601C13.0133 14.3336 13.5007 13.2135 13.5 11.9C13.5 10.5858 13.0123 9.46578 12.037 8.53985C11.0617 7.61392 9.88267 7.15063 8.5 7.15C7.11667 7.15 5.93767 7.61328 4.963 8.53985C3.98833 9.46642 3.50067 10.5865 3.5 11.9C3.5 13.2142 3.98767 14.3345 4.963 15.2611C5.93833 16.1877 7.11733 16.6506 8.5 16.65ZM8.5 15.035C8.06667 15.035 7.64567 14.9596 7.237 14.8089C6.82833 14.6582 6.466 14.4327 6.15 14.1325L10.85 9.6675C11.1667 9.96833 11.4043 10.3129 11.563 10.7011C11.7217 11.0893 11.8007 11.489 11.8 11.9C11.8 12.7708 11.4793 13.5112 10.838 14.1211C10.1967 14.731 9.41733 15.0356 8.5 15.035ZM4.5 5.25C4.78333 5.25 5.021 5.1588 5.213 4.9764C5.405 4.794 5.50067 4.56853 5.5 4.3C5.5 4.03083 5.404 3.80537 5.212 3.6236C5.02 3.44183 4.78267 3.35063 4.5 3.35C4.21667 3.35 3.97933 3.4412 3.788 3.6236C3.59667 3.806 3.50067 4.03147 3.5 4.3C3.5 4.56917 3.596 4.79495 3.788 4.97735C3.98 5.15975 4.21733 5.25063 4.5 5.25ZM7.5 5.25C7.78333 5.25 8.021 5.1588 8.213 4.9764C8.405 4.794 8.50067 4.56853 8.5 4.3C8.5 4.03083 8.404 3.80537 8.212 3.6236C8.02 3.44183 7.78267 3.35063 7.5 3.35C7.21667 3.35 6.97933 3.4412 6.788 3.6236C6.59667 3.806 6.50067 4.03147 6.5 4.3C6.5 4.56917 6.596 4.79495 6.788 4.97735C6.98 5.15975 7.21733 5.25063 7.5 5.25Z" fill="#494949"/>
</svg>
