<svg width="20" height="20" viewBox="0 0 20 20" fill="none" xmlns="http://www.w3.org/2000/svg">
<path d="M10.943 11.3345L8.74724 13.5207C8.65776 13.6095 8.58674 13.715 8.53828 13.8314C8.48981 13.9477 8.46485 14.0725 8.46485 14.1985C8.46485 14.3245 8.48981 14.4493 8.53828 14.5657C8.58674 14.682 8.65776 14.7876 8.74724 14.8763C8.83599 14.9658 8.94158 15.0368 9.05792 15.0853C9.17425 15.1338 9.29903 15.1587 9.42506 15.1587C9.55109 15.1587 9.67587 15.1338 9.79221 15.0853C9.90854 15.0368 10.0141 14.9658 10.1029 14.8763L13.9216 11.0576C14.0085 10.9669 14.0766 10.8598 14.1221 10.7426C14.2175 10.5102 14.2175 10.2495 14.1221 10.0171C14.0766 9.89987 14.0085 9.7928 13.9216 9.70201L10.1029 5.88332C10.0139 5.79431 9.9082 5.7237 9.79189 5.67553C9.6756 5.62735 9.55095 5.60256 9.42506 5.60256C9.29918 5.60256 9.17453 5.62735 9.05823 5.67553C8.94193 5.7237 8.83626 5.79431 8.74724 5.88332C8.65823 5.97233 8.58762 6.07801 8.53945 6.19431C8.49128 6.31061 8.46648 6.43526 8.46648 6.56114C8.46648 6.68702 8.49128 6.81167 8.53945 6.92797C8.58762 7.04427 8.65823 7.14994 8.74724 7.23896L10.943 9.42516H1.78768C1.53449 9.42516 1.29166 9.52574 1.11262 9.70477C0.933589 9.88381 0.833008 10.1266 0.833008 10.3798C0.833008 10.633 0.933589 10.8758 1.11262 11.0549C1.29166 11.2339 1.53449 11.3345 1.78768 11.3345H10.943ZM10.3797 0.833103C8.59554 0.825137 6.84482 1.31733 5.32614 2.25384C3.80747 3.19035 2.58164 4.53371 1.78768 6.13154C1.67374 6.35941 1.65499 6.62322 1.73556 6.86491C1.81613 7.10661 1.98941 7.30641 2.21728 7.42034C2.44516 7.53428 2.70896 7.55303 2.95066 7.47246C3.19236 7.3919 3.39215 7.21862 3.50609 6.99074C4.10963 5.77193 5.02768 4.7364 6.16538 3.99115C7.30308 3.2459 8.61915 2.81798 9.97758 2.75161C11.336 2.68523 12.6875 2.98281 13.8925 3.6136C15.0974 4.24438 16.112 5.18548 16.8315 6.33965C17.551 7.49382 17.9492 8.81918 17.985 10.1788C18.0209 11.5383 17.693 12.8828 17.0353 14.0733C16.3775 15.2637 15.4139 16.2569 14.2438 16.9503C13.0738 17.6436 11.7398 18.012 10.3797 18.0172C8.9562 18.0234 7.55978 17.6281 6.35072 16.8766C5.14167 16.1252 4.16897 15.0481 3.54428 13.7689C3.43034 13.541 3.23055 13.3678 2.98885 13.2872C2.74715 13.2066 2.48335 13.2254 2.25547 13.3393C2.02759 13.4533 1.85431 13.653 1.77375 13.8947C1.69318 14.1364 1.71193 14.4002 1.82587 14.6281C2.58276 16.1513 3.73285 17.4446 5.15717 18.3743C6.58149 19.304 8.22833 19.8362 9.92734 19.916C11.6263 19.9958 13.3158 19.6203 14.821 18.8282C16.3262 18.0361 17.5925 16.8563 18.4888 15.4108C19.3851 13.9652 19.879 12.3065 19.9193 10.6061C19.9596 8.90569 19.5449 7.22539 18.7181 5.73901C17.8913 4.25262 16.6823 3.01412 15.2164 2.15161C13.7504 1.2891 12.0806 0.833902 10.3797 0.833103Z" fill="#F8F8F8"/>
</svg>
