<svg width="19" height="19" viewBox="0 0 19 19" fill="none" xmlns="http://www.w3.org/2000/svg">
<path fill-rule="evenodd" clip-rule="evenodd" d="M8.57033 0H10.4297C11.2241 0 11.886 3.95054e-08 12.411 0.0706977C12.966 0.14493 13.467 0.309302 13.8691 0.711395C14.2721 1.11437 14.4365 1.61544 14.5107 2.16953C14.531 2.31977 14.546 2.47972 14.5549 2.65116C15.0763 2.65116 15.5164 2.6547 15.8796 2.69181C16.2976 2.73423 16.6864 2.82702 17.0364 3.06033C17.3015 3.23795 17.5295 3.46595 17.7071 3.73195C17.9404 4.08102 18.0332 4.46986 18.0756 4.88786C18.1163 5.2873 18.1163 5.7813 18.1163 6.37251V17.6744H18.3372C18.513 17.6744 18.6816 17.7442 18.8059 17.8685C18.9302 17.9928 19 18.1614 19 18.3372C19 18.513 18.9302 18.6816 18.8059 18.8059C18.6816 18.9302 18.513 19 18.3372 19H0.662791C0.487008 19 0.318424 18.9302 0.194127 18.8059C0.0698296 18.6816 0 18.513 0 18.3372C0 18.1614 0.0698296 17.9928 0.194127 17.8685C0.318424 17.7442 0.487008 17.6744 0.662791 17.6744H0.883721V6.3734C0.883721 5.7813 0.883721 5.2873 0.924372 4.88786C0.966791 4.46986 1.05958 4.08102 1.29288 3.73107C1.47051 3.46595 1.69851 3.23795 1.96451 3.06033C2.31358 2.82702 2.70242 2.73423 3.12042 2.69181C3.48274 2.6547 3.92372 2.65116 4.44423 2.65116C4.45484 2.47972 4.46898 2.31977 4.48842 2.17042C4.56353 1.61544 4.72791 1.11437 5.13 0.712279C5.53298 0.309302 6.03405 0.14493 6.58814 0.0706977C7.11395 3.95054e-08 7.77674 0 8.57033 0ZM4.4186 3.97674C3.9034 3.97674 3.54019 3.98116 3.25474 4.01033C2.94102 4.04214 2.79609 4.0987 2.70065 4.16321C2.57998 4.24382 2.47638 4.34743 2.39577 4.46809C2.33126 4.56354 2.2747 4.70847 2.24288 5.02219C2.21019 5.34651 2.2093 5.77335 2.2093 6.40698V17.6744H4.4186V11.9302H3.75581C3.58003 11.9302 3.41145 11.8604 3.28715 11.7361C3.16285 11.6118 3.09302 11.4432 3.09302 11.2674C3.09302 11.0917 3.16285 10.9231 3.28715 10.7988C3.41145 10.6745 3.58003 10.6047 3.75581 10.6047H4.4186V9.27907H3.75581C3.58003 9.27907 3.41145 9.20924 3.28715 9.08494C3.16285 8.96065 3.09302 8.79206 3.09302 8.61628C3.09302 8.4405 3.16285 8.27191 3.28715 8.14762C3.41145 8.02332 3.58003 7.95349 3.75581 7.95349H4.4186V6.62791H3.75581C3.58003 6.62791 3.41145 6.55808 3.28715 6.43378C3.16285 6.30948 3.09302 6.1409 3.09302 5.96512C3.09302 5.78933 3.16285 5.62075 3.28715 5.49645C3.41145 5.37216 3.58003 5.30233 3.75581 5.30233H4.4186V4.15172V3.97674ZM5.74419 17.6744H8.83721V15.686C8.83721 15.5103 8.90704 15.3417 9.03134 15.2174C9.15563 15.0931 9.32422 15.0233 9.5 15.0233C9.67578 15.0233 9.84437 15.0931 9.96866 15.2174C10.093 15.3417 10.1628 15.5103 10.1628 15.686V17.6744H13.2558V4.19767C13.2558 3.34577 13.254 2.77312 13.1966 2.34628C13.1418 1.93888 13.0473 1.76391 12.9315 1.64902C12.8166 1.53414 12.6425 1.43958 12.2351 1.38391C11.8083 1.32735 11.2356 1.32558 10.3837 1.32558H8.61628C7.76437 1.32558 7.19172 1.32735 6.76488 1.38479C6.35749 1.43958 6.18251 1.53414 6.06763 1.64991C5.95274 1.76479 5.85819 1.93888 5.80251 2.34628C5.74684 2.77312 5.74419 3.34577 5.74419 4.19767V17.6744ZM14.5814 6.62791H15.2442C15.42 6.62791 15.5886 6.55808 15.7129 6.43378C15.8371 6.30948 15.907 6.1409 15.907 5.96512C15.907 5.78933 15.8371 5.62075 15.7129 5.49645C15.5886 5.37216 15.42 5.30233 15.2442 5.30233H14.5814V3.97674C15.0966 3.97674 15.4598 3.98116 15.7453 4.01033C16.059 4.04214 16.2039 4.0987 16.3002 4.16321C16.4204 4.24274 16.5238 4.34702 16.6042 4.46809C16.6687 4.56354 16.7253 4.70847 16.7571 5.02219C16.7898 5.34651 16.7907 5.77335 16.7907 6.40698V17.6744H14.5814V11.9302H15.2442C15.42 11.9302 15.5886 11.8604 15.7129 11.7361C15.8371 11.6118 15.907 11.4432 15.907 11.2674C15.907 11.0917 15.8371 10.9231 15.7129 10.7988C15.5886 10.6745 15.42 10.6047 15.2442 10.6047H14.5814V9.27907H15.2442C15.42 9.27907 15.5886 9.20924 15.7129 9.08494C15.8371 8.96065 15.907 8.79206 15.907 8.61628C15.907 8.4405 15.8371 8.27191 15.7129 8.14762C15.5886 8.02332 15.42 7.95349 15.2442 7.95349H14.5814V6.62791ZM9.5 3.97674C9.20703 3.97674 8.92606 4.09313 8.71889 4.30029C8.51173 4.50745 8.39535 4.78842 8.39535 5.0814C8.39535 5.37437 8.51173 5.65534 8.71889 5.8625C8.92606 6.06966 9.20703 6.18605 9.5 6.18605C9.79297 6.18605 10.0739 6.06966 10.2811 5.8625C10.4883 5.65534 10.6047 5.37437 10.6047 5.0814C10.6047 4.78842 10.4883 4.50745 10.2811 4.30029C10.0739 4.09313 9.79297 3.97674 9.5 3.97674ZM7.06977 5.0814C7.06977 4.43686 7.32581 3.81872 7.78157 3.36296C8.23732 2.9072 8.85546 2.65116 9.5 2.65116C10.1445 2.65116 10.7627 2.9072 11.2184 3.36296C11.6742 3.81872 11.9302 4.43686 11.9302 5.0814C11.9302 5.72593 11.6742 6.34407 11.2184 6.79983C10.7627 7.25559 10.1445 7.51163 9.5 7.51163C8.85546 7.51163 8.23732 7.25559 7.78157 6.79983C7.32581 6.34407 7.06977 5.72593 7.06977 5.0814ZM7.06977 9.5C7.06977 9.32422 7.1396 9.15563 7.26389 9.03134C7.38819 8.90704 7.55678 8.83721 7.73256 8.83721H11.2674C11.4432 8.83721 11.6118 8.90704 11.7361 9.03134C11.8604 9.15563 11.9302 9.32422 11.9302 9.5C11.9302 9.67578 11.8604 9.84437 11.7361 9.96866C11.6118 10.093 11.4432 10.1628 11.2674 10.1628H7.73256C7.55678 10.1628 7.38819 10.093 7.26389 9.96866C7.1396 9.84437 7.06977 9.67578 7.06977 9.5ZM7.06977 12.1512C7.06977 11.9754 7.1396 11.8068 7.26389 11.6825C7.38819 11.5582 7.55678 11.4884 7.73256 11.4884H11.2674C11.4432 11.4884 11.6118 11.5582 11.7361 11.6825C11.8604 11.8068 11.9302 11.9754 11.9302 12.1512C11.9302 12.3269 11.8604 12.4955 11.7361 12.6198C11.6118 12.7441 11.4432 12.814 11.2674 12.814H7.73256C7.55678 12.814 7.38819 12.7441 7.26389 12.6198C7.1396 12.4955 7.06977 12.3269 7.06977 12.1512Z" fill="#494949"/>
</svg>
